<svg id="Layer_1" data-name="Layer 1" xmlns="http://www.w3.org/2000/svg" viewBox="0 0 352.5 65"><defs><style>.cls-1{fill:#de4d20;}.cls-2{fill:#fff;}.cls-3{fill:#1d1d1b;}</style></defs><title>AAPOON MEET - Logo ( Curves Orange )</title><path class="cls-1" d="M51.56,20.29a25,25,0,0,0-5.33-7.77A25.34,25.34,0,0,0,38.41,7.3a23.82,23.82,0,0,0-9.54-1.93,23.87,23.87,0,0,0-9.62,2A25.1,25.1,0,0,0,6,20.55a24,24,0,0,0-2,9.65,23.84,23.84,0,0,0,2,9.62,25,25,0,0,0,5.33,7.84A25.5,25.5,0,0,0,19.24,53a24.73,24.73,0,0,0,16,1.12c2-.56,3.15-1.06,5.79-4.62,0.57,1,1.34,4,2.31,4.6a6.46,6.46,0,0,0,3.38.86,6.83,6.83,0,0,0,6.9-6.9V29.79a24.42,24.42,0,0,0-2.08-9.49"/><path class="cls-1" d="M78.76,42.81a12.2,12.2,0,0,1-4.87-1,12.89,12.89,0,0,1-4-2.65,12.45,12.45,0,0,1-2.7-3.92,12.18,12.18,0,0,1,0-9.62,12.57,12.57,0,0,1,2.7-3.94,12.82,12.82,0,0,1,4-2.66,12.62,12.62,0,0,1,9.7,0,12.86,12.86,0,0,1,4,2.61,12.49,12.49,0,0,1,2.7,3.88,12,12,0,0,1,1.05,4.74v9.1A3.37,3.37,0,0,1,91,40.72a3.44,3.44,0,0,1-1.86,1.82,3.52,3.52,0,0,1-1.36.27,3.31,3.31,0,0,1-1.71-.43,3.26,3.26,0,0,1-1.17-1.17A13.31,13.31,0,0,1,82,42.39,12.29,12.29,0,0,1,78.76,42.81Zm0-6.77A5.78,5.78,0,0,0,81,35.61a5.61,5.61,0,0,0,1.82-1.19A5.72,5.72,0,0,0,84,32.65a5.5,5.5,0,0,0,0-4.36,5.73,5.73,0,0,0-1.22-1.77A5.61,5.61,0,0,0,81,25.33a5.78,5.78,0,0,0-2.23-.43,5.62,5.62,0,0,0-2.19.43,5.8,5.8,0,0,0-1.82,1.19,5.63,5.63,0,0,0-1.24,1.77,5.5,5.5,0,0,0,0,4.36,5.62,5.62,0,0,0,1.24,1.77,5.8,5.8,0,0,0,1.82,1.19A5.62,5.62,0,0,0,78.75,36Z"/><path class="cls-1" d="M106.2,42.81a12.2,12.2,0,0,1-4.87-1,12.89,12.89,0,0,1-4-2.65,12.45,12.45,0,0,1-2.7-3.92,12.18,12.18,0,0,1,0-9.62,12.57,12.57,0,0,1,2.7-3.94,12.82,12.82,0,0,1,4-2.66,12.62,12.62,0,0,1,9.7,0,12.86,12.86,0,0,1,4,2.61,12.49,12.49,0,0,1,2.7,3.88,12,12,0,0,1,1.05,4.74v9.1a3.37,3.37,0,0,1-.27,1.36,3.44,3.44,0,0,1-1.86,1.82,3.52,3.52,0,0,1-1.36.27,3.31,3.31,0,0,1-1.71-.43,3.26,3.26,0,0,1-1.17-1.17,13.31,13.31,0,0,1-2.93,1.18A12.29,12.29,0,0,1,106.2,42.81Zm0-6.77a5.78,5.78,0,0,0,2.23-.43,5.61,5.61,0,0,0,1.82-1.19,5.72,5.72,0,0,0,1.22-1.77,5.5,5.5,0,0,0,0-4.36,5.73,5.73,0,0,0-1.22-1.77,5.61,5.61,0,0,0-1.82-1.19,5.78,5.78,0,0,0-2.23-.43,5.62,5.62,0,0,0-2.19.43,5.8,5.8,0,0,0-1.82,1.19,5.63,5.63,0,0,0-1.24,1.77,5.5,5.5,0,0,0,0,4.36,5.62,5.62,0,0,0,1.24,1.77A5.8,5.8,0,0,0,104,35.61,5.62,5.62,0,0,0,106.19,36Z"/><path class="cls-1" d="M122.26,30.27a11.59,11.59,0,0,1,1-4.74A12.54,12.54,0,0,1,126,21.65,13,13,0,0,1,130,19a12.56,12.56,0,0,1,9.67,0,12.53,12.53,0,0,1,6.67,6.6,12.18,12.18,0,0,1,0,9.62,12.57,12.57,0,0,1-2.69,3.92,12.7,12.7,0,0,1-4,2.65,12.23,12.23,0,0,1-4.86,1,12.41,12.41,0,0,1-3-.35,13,13,0,0,1-2.75-1v6.33a3.88,3.88,0,0,1-.24,1.38,3.51,3.51,0,0,1-.68,1.13,3,3,0,0,1-1.05.75,3.47,3.47,0,0,1-3.82-.75,3.68,3.68,0,0,1-.76-1.13,3.4,3.4,0,0,1-.28-1.38V30.27Zm6.86,0.2a5.31,5.31,0,0,0,.45,2.18,5.62,5.62,0,0,0,1.23,1.77,5.75,5.75,0,0,0,1.82,1.19,5.69,5.69,0,0,0,7.43-3,5.51,5.51,0,0,0,0-4.36,5.74,5.74,0,0,0-1.22-1.77,5.78,5.78,0,0,0-6.21-1.19,5.75,5.75,0,0,0-1.82,1.19,5.63,5.63,0,0,0-1.23,1.77A5.32,5.32,0,0,0,129.12,30.47Z"/><path class="cls-1" d="M148.55,30.47a11.85,11.85,0,0,1,1-4.81,12.57,12.57,0,0,1,2.7-3.94,12.82,12.82,0,0,1,4-2.66,12.67,12.67,0,0,1,9.75,0,12.53,12.53,0,0,1,6.67,6.6,12.18,12.18,0,0,1,0,9.62A12.57,12.57,0,0,1,170,39.19a12.7,12.7,0,0,1-4,2.65,12.67,12.67,0,0,1-9.75,0,12.89,12.89,0,0,1-4-2.65,12.45,12.45,0,0,1-2.7-3.92A11.76,11.76,0,0,1,148.55,30.47Zm6.84,0a5.31,5.31,0,0,0,.45,2.18,5.62,5.62,0,0,0,1.24,1.77,5.8,5.8,0,0,0,1.82,1.19,5.62,5.62,0,0,0,2.19.43,5.78,5.78,0,0,0,2.23-.43,5.61,5.61,0,0,0,1.82-1.19,5.72,5.72,0,0,0,1.22-1.77,5.5,5.5,0,0,0,0-4.36,5.73,5.73,0,0,0-1.22-1.77,5.61,5.61,0,0,0-1.82-1.19,5.78,5.78,0,0,0-2.23-.43,5.62,5.62,0,0,0-2.19.43,5.8,5.8,0,0,0-1.82,1.19,5.63,5.63,0,0,0-1.24,1.77A5.31,5.31,0,0,0,155.39,30.47Z"/><path class="cls-1" d="M174.84,30.47a11.85,11.85,0,0,1,1-4.81,12.57,12.57,0,0,1,2.7-3.94,12.83,12.83,0,0,1,4-2.66,12.67,12.67,0,0,1,9.75,0,12.54,12.54,0,0,1,6.67,6.6,12.19,12.19,0,0,1,0,9.62,12.57,12.57,0,0,1-2.69,3.92,12.71,12.71,0,0,1-4,2.65,12.67,12.67,0,0,1-9.75,0,12.9,12.9,0,0,1-4-2.65,12.45,12.45,0,0,1-2.7-3.92A11.76,11.76,0,0,1,174.84,30.47Zm6.83,0a5.3,5.3,0,0,0,.45,2.18,5.63,5.63,0,0,0,1.24,1.77,5.81,5.81,0,0,0,1.81,1.19,5.63,5.63,0,0,0,2.19.43,5.78,5.78,0,0,0,2.23-.43,5.59,5.59,0,0,0,1.81-1.19,5.73,5.73,0,0,0,1.22-1.77,5.49,5.49,0,0,0,0-4.36,5.73,5.73,0,0,0-1.22-1.77,5.59,5.59,0,0,0-1.81-1.19,5.78,5.78,0,0,0-2.23-.43,5.63,5.63,0,0,0-2.19.43,5.81,5.81,0,0,0-1.81,1.19,5.64,5.64,0,0,0-1.24,1.77A5.3,5.3,0,0,0,181.67,30.47Z"/><path class="cls-1" d="M201.49,30.12a11.47,11.47,0,0,1,1-4.68,12.23,12.23,0,0,1,2.62-3.83A12.47,12.47,0,0,1,208.95,19a11.86,11.86,0,0,1,4.73-1,12.31,12.31,0,0,1,4.81,1,13.11,13.11,0,0,1,4,2.58,12.24,12.24,0,0,1,2.73,3.83,11.1,11.1,0,0,1,1,4.68v9.12a3.23,3.23,0,0,1-2,3,3.44,3.44,0,0,1-1.32.25,3.61,3.61,0,0,1-1.35-.25,3.55,3.55,0,0,1-1.11-.7,3.23,3.23,0,0,1-.75-1,3.11,3.11,0,0,1-.27-1.3v-9.1a4.84,4.84,0,0,0-.5-2.05,5.59,5.59,0,0,0-1.28-1.69,6.19,6.19,0,0,0-1.82-1.14,5.54,5.54,0,0,0-2.12-.42,5.46,5.46,0,0,0-2.07.39,5.11,5.11,0,0,0-1.67,1.09A5.42,5.42,0,0,0,208.77,28a5.14,5.14,0,0,0-.45,2v9.25a3.26,3.26,0,0,1-.26,1.3,3.15,3.15,0,0,1-.72,1,3.46,3.46,0,0,1-1.06.7,3.3,3.3,0,0,1-1.29.25,3.58,3.58,0,0,1-1.33-.25,3.64,3.64,0,0,1-1.13-.7,3.32,3.32,0,0,1-.77-1,3,3,0,0,1-.28-1.3V30.12Z"/><path class="cls-1" d="M240.5,27.15a8.57,8.57,0,0,1,.73-3.52,9.47,9.47,0,0,1,2-2.89,9.17,9.17,0,0,1,2.92-2,9,9,0,0,1,3.57-.71,8.81,8.81,0,0,1,3.16.56,10.33,10.33,0,0,1,2.7,1.52,10.39,10.39,0,0,1,2.68-1.52,8.71,8.71,0,0,1,3.15-.56,9.43,9.43,0,0,1,3.62.71,9.58,9.58,0,0,1,5.09,4.84,8.21,8.21,0,0,1,.77,3.52V39.21a3.21,3.21,0,0,1-.27,1.32,3.28,3.28,0,0,1-.73,1.05,3.46,3.46,0,0,1-1.07.7,3.32,3.32,0,0,1-1.3.25,3.48,3.48,0,0,1-1.34-.25,3.41,3.41,0,0,1-1.08-.7,3.28,3.28,0,0,1-.73-1.05,3.21,3.21,0,0,1-.27-1.32V27.35a1.9,1.9,0,0,0-.23-0.91,2.49,2.49,0,0,0-.62-0.75,3,3,0,0,0-.86-0.49,2.68,2.68,0,0,0-.94-0.18,2.39,2.39,0,0,0-1.58.57A2.25,2.25,0,0,0,259,27a1.57,1.57,0,0,0,0,.2,1.77,1.77,0,0,1,0,.23v5.17a3.2,3.2,0,0,1-.27,1.32,3.55,3.55,0,0,1-.72,1.06,3.34,3.34,0,0,1-1.07.72,3.29,3.29,0,0,1-1.31.27,3.35,3.35,0,0,1-1.34-.27,3.49,3.49,0,0,1-1.08-.72,3.45,3.45,0,0,1-.73-1.06,3.21,3.21,0,0,1-.27-1.32V27.68a1.43,1.43,0,0,0-.05-0.3v0a2.2,2.2,0,0,0-.19-0.91,2.47,2.47,0,0,0-.53-0.76,2.53,2.53,0,0,0-.77-0.52,2.3,2.3,0,0,0-.92-0.19,2.51,2.51,0,0,0-1.59.54,2.45,2.45,0,0,0-.9,1.36c0,0.08,0,.17,0,0.24a2.1,2.1,0,0,1,0,.24l-0.1,11.86a3.53,3.53,0,0,1-.29,1.32,3.41,3.41,0,0,1-.72,1.05,3.32,3.32,0,0,1-2.35,1,3.48,3.48,0,0,1-1.34-.25,3.42,3.42,0,0,1-1.08-.7,3.28,3.28,0,0,1-.73-1.05,3.21,3.21,0,0,1-.27-1.32V27.15Z"/><path class="cls-1" d="M280.5,33.49a6.08,6.08,0,0,0,2.13,2.08,5.63,5.63,0,0,0,2.88.76,6.29,6.29,0,0,0,1.61-.16,4.66,4.66,0,0,0,1.09-.44,3.74,3.74,0,0,1,1-.47,3.6,3.6,0,0,1,1-.14,3.12,3.12,0,0,1,1.32.28,3.36,3.36,0,0,1,1.05.76,3.61,3.61,0,0,1,.71,1.12,3.48,3.48,0,0,1,.26,1.32,3,3,0,0,1-.49,1.63,4.11,4.11,0,0,1-1.49,1.34,9.2,9.2,0,0,1-2.51.91,16,16,0,0,1-3.53.34,12.38,12.38,0,0,1-4.89-1,13,13,0,0,1-4-2.65,12.53,12.53,0,0,1-2.72-3.92,11.64,11.64,0,0,1-1-4.8,11.79,11.79,0,0,1,1-4.84,12.67,12.67,0,0,1,11.64-7.55,12.44,12.44,0,0,1,4.84,1,12.6,12.6,0,0,1,6.71,6.5,12,12,0,0,1,1.07,4.76,3,3,0,0,1-.94,2.32,3.42,3.42,0,0,1-2.43.87H280.5Zm10.61-5.63A5.74,5.74,0,0,0,289,25.43a6.06,6.06,0,0,0-3.31-.91,5.6,5.6,0,0,0-3.29,1,6.11,6.11,0,0,0-2.06,2.39h10.82Z"/><path class="cls-1" d="M307,33.49a6.08,6.08,0,0,0,2.13,2.08,5.63,5.63,0,0,0,2.88.76,6.29,6.29,0,0,0,1.61-.16,4.66,4.66,0,0,0,1.09-.44,3.74,3.74,0,0,1,1-.47,3.6,3.6,0,0,1,1-.14,3.12,3.12,0,0,1,1.32.28,3.36,3.36,0,0,1,1.05.76,3.61,3.61,0,0,1,.71,1.12,3.48,3.48,0,0,1,.26,1.32,3,3,0,0,1-.49,1.63A4.11,4.11,0,0,1,318,41.56a9.2,9.2,0,0,1-2.51.91,16,16,0,0,1-3.53.34,12.38,12.38,0,0,1-4.89-1,13,13,0,0,1-4-2.65,12.53,12.53,0,0,1-2.72-3.92,11.64,11.64,0,0,1-1-4.8,11.79,11.79,0,0,1,1-4.84A12.67,12.67,0,0,1,312,18.08a12.44,12.44,0,0,1,4.84,1,12.6,12.6,0,0,1,6.71,6.5,12,12,0,0,1,1.07,4.76,3,3,0,0,1-.94,2.32,3.42,3.42,0,0,1-2.43.87H307Zm10.61-5.63a5.74,5.74,0,0,0-2.16-2.43,6.06,6.06,0,0,0-3.31-.91,5.6,5.6,0,0,0-3.29,1,6.11,6.11,0,0,0-2.06,2.39h10.82Z"/><path class="cls-1" d="M326.45,14.08a3.17,3.17,0,0,1,.28-1.33,3.77,3.77,0,0,1,.75-1.09,3.41,3.41,0,0,1,2.42-1,3.55,3.55,0,0,1,1.35.27,3.69,3.69,0,0,1,1.14.72,3.49,3.49,0,0,1,.78,1.09,3.14,3.14,0,0,1,.3,1.34v3.24h7.89a3.37,3.37,0,0,1,1.32.27,3.5,3.5,0,0,1,1.1.73,3.45,3.45,0,0,1,.75,1.09,3.24,3.24,0,0,1,.27,1.3,3,3,0,0,1-.27,1.27,3.27,3.27,0,0,1-.75,1,3.57,3.57,0,0,1-2.43,1h-7.89v6.55a5.58,5.58,0,0,0,1.59,3.95,5.41,5.41,0,0,0,1.75,1.19,5.47,5.47,0,0,0,2.18.43,6.58,6.58,0,0,0,2-.28,4.16,4.16,0,0,0,1.59-.91,5.54,5.54,0,0,1,1.2-.82,3.07,3.07,0,0,1,1.4-.32,2.87,2.87,0,0,1,1.13.24,3.08,3.08,0,0,1,1,.67,3.63,3.63,0,0,1,.69,1,2.85,2.85,0,0,1,.27,1.23,4,4,0,0,1-.32,1.55,4.12,4.12,0,0,1-.91,1.35,10.54,10.54,0,0,1-3.62,2.29,12.79,12.79,0,0,1-9.25-.21,12.69,12.69,0,0,1-4-2.65,12.53,12.53,0,0,1-2.68-3.93,11.84,11.84,0,0,1-1-4.82V14.08Z"/><path class="cls-2" d="M44.46,22.22a1.08,1.08,0,0,1,.1-0.81c-0.25-.37-0.39-0.06-0.54.09l-2.29,2.24-0.14.14-0.1.1-0.15.13h0l-0.13.13h0l-0.62.62-0.1.1L38,27.4c-0.12-.06,0-0.24,0-0.38,0-1.07,0-2.14,0-3.21a4.3,4.3,0,0,0-.15-1.37,3.57,3.57,0,0,0-3.64-2.13c-5.45,0-10.9,0-16.35,0l-0.12,0-1.09.5-0.74.83-0.51,1.1c0,0.34-.09.68-0.09,1q0,6.18,0,12.37a1.15,1.15,0,0,0,.06.59q0-2.94,0-5.88,0,2.94,0,5.88l0,0.58,0.49,1.09a4.88,4.88,0,0,0,1.2,1,0.3,0.3,0,0,1,.15.36,1.72,1.72,0,0,1,1.23,0c5.45,0,10.9,0,16.36,0a3.19,3.19,0,0,0,3-2.42,5.33,5.33,0,0,0,.11-1.38q0-1.67,0-3.34l6.32,6.23,0.18-.05-0.07-.47c0-.1,0-0.2,0-0.3Q44.43,30.1,44.46,22.22Z"/><path class="cls-3" d="M248.74,54.21v3a0.72,0.72,0,0,1-.73.73,0.74,0.74,0,0,1-.75-0.73v-3a0.9,0.9,0,0,0-.94-0.84,0.91,0.91,0,0,0-1,.84v3a0.74,0.74,0,0,1-1.47,0v-3a1,1,0,0,0-1.93,0v3.08a0.73,0.73,0,0,1-.74.72,0.75,0.75,0,0,1-.74-0.72V52.59a0.76,0.76,0,0,1,.74-0.75,0.69,0.69,0,0,1,.57.29,2.56,2.56,0,0,1,1.14-.27,2.52,2.52,0,0,1,1.71.66,2.43,2.43,0,0,1,1.71-.66,2.38,2.38,0,0,1,2.43,2.31v0Z"/><path class="cls-3" d="M255.8,52.54v4.67a0.7,0.7,0,0,1-.72.7,0.65,0.65,0,0,1-.66-0.7V57.07a2.84,2.84,0,0,1-1.89.72,2.95,2.95,0,1,1,1.89-5.19V52.54a0.65,0.65,0,0,1,.66-0.7A0.7,0.7,0,0,1,255.8,52.54Zm-1.72,2.31a1.55,1.55,0,1,0-1.55,1.51A1.54,1.54,0,0,0,254.08,54.84Z"/><path class="cls-3" d="M262.06,57.69a0.82,0.82,0,0,1-.56.23,0.73,0.73,0,0,1-.51-0.2l-2.52-2.29v1.82a0.75,0.75,0,0,1-1.51,0V49.47a0.75,0.75,0,0,1,1.51,0V53.6l2.44-1.66a0.76,0.76,0,0,1,1.05.18,0.74,0.74,0,0,1-.17,1l-2.07,1.38,2.3,2.09A0.76,0.76,0,0,1,262.06,57.69Z"/><path class="cls-3" d="M267.78,55.29H264a1.63,1.63,0,0,0,1.57,1.23,2.09,2.09,0,0,0,1.3-.46,0.75,0.75,0,0,1,1.05,0,0.72,0.72,0,0,1,0,1,3.47,3.47,0,0,1-2.34.87,3.06,3.06,0,1,1,0-6.13,2.71,2.71,0,0,1,.54,0,3,3,0,0,1,2,1.4,2.34,2.34,0,0,1,.4,1.2,1,1,0,0,1-.1.35A0.67,0.67,0,0,1,267.78,55.29Zm-3.6-1.23h2.62a1.38,1.38,0,0,0-1.26-.73A1.61,1.61,0,0,0,264.18,54.06Z"/><path class="cls-3" d="M280.86,54.21v3a0.72,0.72,0,0,1-.73.73,0.74,0.74,0,0,1-.75-0.73v-3a0.9,0.9,0,0,0-.94-0.84,0.91,0.91,0,0,0-1,.84v3a0.74,0.74,0,0,1-1.47,0v-3a1,1,0,0,0-1.93,0v3.08a0.73,0.73,0,0,1-.74.72,0.75,0.75,0,0,1-.74-0.72V52.59a0.76,0.76,0,0,1,.74-0.75,0.69,0.69,0,0,1,.57.29,2.56,2.56,0,0,1,1.14-.27,2.52,2.52,0,0,1,1.71.66,2.43,2.43,0,0,1,1.71-.66,2.38,2.38,0,0,1,2.43,2.31v0Z"/><path class="cls-3" d="M286.93,55.29h-3.81a1.63,1.63,0,0,0,1.57,1.23,2.09,2.09,0,0,0,1.3-.46,0.75,0.75,0,0,1,1.05,0,0.72,0.72,0,0,1,0,1,3.47,3.47,0,0,1-2.34.87,3.06,3.06,0,1,1,0-6.13,2.71,2.71,0,0,1,.54,0,3,3,0,0,1,2,1.4,2.34,2.34,0,0,1,.4,1.2,1,1,0,0,1-.1.35A0.67,0.67,0,0,1,286.93,55.29Zm-3.6-1.23H286a1.38,1.38,0,0,0-1.26-.73A1.61,1.61,0,0,0,283.33,54.06Z"/><path class="cls-3" d="M293.34,55.29h-3.81a1.63,1.63,0,0,0,1.57,1.23,2.09,2.09,0,0,0,1.3-.46,0.75,0.75,0,0,1,1.05,0,0.72,0.72,0,0,1,0,1,3.47,3.47,0,0,1-2.34.87,3.06,3.06,0,1,1,0-6.13,2.71,2.71,0,0,1,.54,0,3,3,0,0,1,2,1.4,2.34,2.34,0,0,1,.4,1.2,1,1,0,0,1-.1.35A0.67,0.67,0,0,1,293.34,55.29Zm-3.6-1.23h2.62a1.38,1.38,0,0,0-1.26-.73A1.61,1.61,0,0,0,289.74,54.06Z"/><path class="cls-3" d="M298,57.18a0.73,0.73,0,0,1-.74.73H297a1.66,1.66,0,0,1-1.51-1.65V53.17h-0.53a0.73,0.73,0,1,1,0-1.46h0.53V49.38a0.74,0.74,0,0,1,1.48,0v2.33h0.41a0.73,0.73,0,1,1,0,1.46h-0.41v2.9a0.56,0.56,0,0,0,.09.32,0.37,0.37,0,0,0,.26,0A0.74,0.74,0,0,1,298,57.18Z"/><path class="cls-3" d="M299.8,50.78A0.77,0.77,0,0,1,299,50V50a0.77,0.77,0,0,1,1.53,0V50A0.76,0.76,0,0,1,299.8,50.78Zm0,7.17a0.77,0.77,0,0,1-.78-0.76V52.48a0.77,0.77,0,0,1,1.53,0v4.71A0.76,0.76,0,0,1,299.8,57.94Z"/><path class="cls-3" d="M307.5,54.88v2.31a0.74,0.74,0,0,1-1.47,0V54.88a1.5,1.5,0,0,0-1.42-1.56,1.63,1.63,0,0,0-1.46,1.79v2.08a0.74,0.74,0,0,1-1.48,0V52.52a0.74,0.74,0,0,1,1.44-.23,2.79,2.79,0,0,1,1.51-.44A3,3,0,0,1,307.5,54.88Z"/><path class="cls-3" d="M314.56,52.5V58A3.19,3.19,0,0,1,309,60.09a0.75,0.75,0,0,1,1.15-1A1.68,1.68,0,0,0,313,58V57.49a3.07,3.07,0,1,1-1.57-5.68,3,3,0,0,1,1.61.45,0.77,0.77,0,0,1,.72-0.51A0.75,0.75,0,0,1,314.56,52.5ZM313,54.87a1.58,1.58,0,1,0-1.57,1.56A1.57,1.57,0,0,0,313,54.87Z"/><path class="cls-3" d="M318,58a3.14,3.14,0,0,1-2-.7,0.71,0.71,0,0,1,0-1,0.73,0.73,0,0,1,1,0,1.55,1.55,0,0,0,1.52.18,0.37,0.37,0,0,0-.07-0.68,1.28,1.28,0,0,0-.53-0.06,2.86,2.86,0,0,1-1-.13,1.84,1.84,0,0,1-1.21-1.5,1.79,1.79,0,0,1,.56-1.51,2.65,2.65,0,0,1,2.18-.54,2.22,2.22,0,0,1,1.18.54,0.72,0.72,0,0,1,0,1,0.76,0.76,0,0,1-.63.23,0.78,0.78,0,0,1-.32-0.11,1.15,1.15,0,0,0-.52-0.24c-0.37-.06-1.06,0-1,0.49a0.48,0.48,0,0,0,.22.26,2.08,2.08,0,0,0,.51,0,2.93,2.93,0,0,1,1.14.2A1.86,1.86,0,0,1,320.17,56a1.89,1.89,0,0,1-.85,1.56A2.44,2.44,0,0,1,318,58Z"/><path class="cls-3" d="M329.47,55.29h-3.81a1.63,1.63,0,0,0,1.57,1.23,2.09,2.09,0,0,0,1.3-.46,0.75,0.75,0,0,1,1.05,0,0.72,0.72,0,0,1,0,1,3.47,3.47,0,0,1-2.34.87,3.06,3.06,0,1,1,0-6.13,2.71,2.71,0,0,1,.54,0,3,3,0,0,1,2,1.4,2.34,2.34,0,0,1,.4,1.2,1,1,0,0,1-.1.35A0.67,0.67,0,0,1,329.47,55.29Zm-3.6-1.23h2.62a1.38,1.38,0,0,0-1.26-.73A1.61,1.61,0,0,0,325.86,54.06Z"/><path class="cls-3" d="M336.86,52.54v4.67a0.7,0.7,0,0,1-.72.7,0.65,0.65,0,0,1-.66-0.7V57.07a2.84,2.84,0,0,1-1.89.72,2.95,2.95,0,1,1,1.89-5.19V52.54a0.65,0.65,0,0,1,.66-0.7A0.7,0.7,0,0,1,336.86,52.54Zm-1.72,2.31a1.55,1.55,0,1,0-1.55,1.51A1.54,1.54,0,0,0,335.14,54.84Z"/><path class="cls-3" d="M340.24,58a3.14,3.14,0,0,1-2-.7,0.71,0.71,0,0,1,0-1,0.73,0.73,0,0,1,1,0,1.55,1.55,0,0,0,1.52.18,0.37,0.37,0,0,0-.07-0.68,1.28,1.28,0,0,0-.53-0.06,2.86,2.86,0,0,1-1-.13A1.84,1.84,0,0,1,338,54a1.79,1.79,0,0,1,.56-1.51,2.65,2.65,0,0,1,2.18-.54,2.22,2.22,0,0,1,1.18.54,0.72,0.72,0,0,1,0,1,0.76,0.76,0,0,1-.63.23,0.78,0.78,0,0,1-.32-0.11,1.15,1.15,0,0,0-.52-0.24c-0.37-.06-1.06,0-1,0.49a0.48,0.48,0,0,0,.22.26,2.08,2.08,0,0,0,.51,0,2.93,2.93,0,0,1,1.14.2A1.86,1.86,0,0,1,342.44,56a1.89,1.89,0,0,1-.85,1.56A2.44,2.44,0,0,1,340.24,58Z"/><path class="cls-3" d="M348.88,52.6v5.33a3.08,3.08,0,0,1-3,3.09,3,3,0,0,1-2.3-1.07,0.75,0.75,0,0,1,.07-1,0.7,0.7,0,0,1,1,.09,1.59,1.59,0,0,0,2.81-1.06v-0.5a2.86,2.86,0,0,1-1.41.38,2.93,2.93,0,0,1-2.83-3V52.62a0.72,0.72,0,1,1,1.44,0v2.18a1.41,1.41,0,1,0,2.81,0V52.6A0.72,0.72,0,1,1,348.88,52.6Z"/></svg>